<svg width="200" height="200" viewBox="0 0 200 200" fill="none" xmlns="http://www.w3.org/2000/svg">
<path fill-rule="evenodd" clip-rule="evenodd" d="M22 117C31.3888 117 39 109.389 39 100C39 90.6112 31.3888 83 22 83C12.6112 83 5 90.6112 5 100C5 109.389 12.6112 117 22 117ZM22 108C26.4183 108 30 104.418 30 100C30 95.5817 26.4183 92 22 92C17.5817 92 14 95.5817 14 100C14 104.418 17.5817 108 22 108Z" fill="#FFB800"/>
<path fill-rule="evenodd" clip-rule="evenodd" d="M74 117C83.3888 117 91 109.389 91 100C91 90.6112 83.3888 83 74 83C64.6112 83 57 90.6112 57 100C57 109.389 64.6112 117 74 117ZM74 108C78.4183 108 82 104.418 82 100C82 95.5817 78.4183 92 74 92C69.5817 92 66 95.5817 66 100C66 104.418 69.5817 108 74 108Z" fill="#FFB800"/>
<path fill-rule="evenodd" clip-rule="evenodd" d="M126 117C135.389 117 143 109.389 143 100C143 90.6112 135.389 83 126 83C116.611 83 109 90.6112 109 100C109 109.389 116.611 117 126 117ZM126 108C130.418 108 134 104.418 134 100C134 95.5817 130.418 92 126 92C121.582 92 118 95.5817 118 100C118 104.418 121.582 108 126 108Z" fill="#FFB800"/>
<path fill-rule="evenodd" clip-rule="evenodd" d="M178 117C187.389 117 195 109.389 195 100C195 90.6112 187.389 83 178 83C168.611 83 161 90.6112 161 100C161 109.389 168.611 117 178 117ZM178 108C182.418 108 186 104.418 186 100C186 95.5817 182.418 92 178 92C173.582 92 170 95.5817 170 100C170 104.418 173.582 108 178 108Z" fill="#FFB800"/>
</svg>
