<svg width="200" height="200" viewBox="0 0 200 200" fill="none" xmlns="http://www.w3.org/2000/svg">
<path fill-rule="evenodd" clip-rule="evenodd" d="M32 1H83.2695V15.1135H40.1135C25.7541 15.1135 14.1135 26.7541 14.1135 41.1135V82.8582H0V33C0 15.3269 14.3269 1 32 1ZM0 116.731V168C0 185.673 14.3269 200 32 200H83.2695V185.887H40.1135C25.7541 185.887 14.1135 174.246 14.1135 159.887V116.731H0ZM184.887 116.731V159.887C184.887 174.246 173.246 185.887 158.887 185.887H117.142V200H167C184.673 200 199 185.673 199 168V116.731H184.887ZM199 82.8582V33C199 15.3269 184.673 1 167 1H117.142V15.1135H158.887C173.246 15.1135 184.887 26.7541 184.887 41.1135V82.8582H199Z" fill="#FFB800"/>
<path fill-rule="evenodd" clip-rule="evenodd" d="M104.754 140.022C107.045 140.022 108.901 138.178 108.901 135.905C108.901 133.631 107.045 131.788 104.754 131.788H101.159C98.8685 131.788 97.0114 133.631 97.0114 135.905C97.0114 138.178 98.8685 140.022 101.159 140.022H104.754ZM101.712 85.1304C101.712 87.404 103.569 89.2473 105.86 89.2473C108.151 89.2473 110.007 87.404 110.007 85.1304V81.5625C110.007 79.2884 108.151 77.4457 105.86 77.4457C103.569 77.4457 101.712 79.2884 101.712 81.5625V85.1304ZM76.2734 131.239C78.5645 131.239 80.421 129.396 80.421 127.122C80.421 124.848 78.5645 123.005 76.2734 123.005H72.6788C70.3882 123.005 68.5312 124.848 68.5312 127.122C68.5312 129.396 70.3882 131.239 72.6788 131.239H76.2734ZM161.852 104.617H142.552C142.607 104.883 142.635 105.158 142.635 105.44V117.791C142.635 120.064 140.779 121.908 138.488 121.908C136.197 121.908 134.34 120.064 134.34 117.791V105.44C134.34 105.158 134.368 104.883 134.423 104.617H97.841V109.283H119.685C121.976 109.283 123.833 111.125 123.833 113.399C123.833 115.673 121.976 117.516 119.685 117.516H93.6933C91.4028 117.516 89.5457 115.673 89.5457 113.399V104.617H74.0613V116.693C74.0613 118.967 72.2049 120.81 69.9137 120.81C67.6231 120.81 65.7661 118.967 65.7661 116.693V104.617H37.1476C34.857 104.617 33 102.774 33 100.5C33 98.2259 34.857 96.3832 37.1476 96.3832H56.0884V88.4239H51.9407C49.6502 88.4239 47.7931 86.5807 47.7931 84.3071C47.7931 82.0329 49.6502 80.1902 51.9407 80.1902H72.6788C74.9699 80.1902 76.8264 82.0329 76.8264 84.3071C76.8264 86.5807 74.9699 88.4239 72.6788 88.4239H64.3836V96.3832H89.5457V85.6793C89.5457 83.4052 91.4028 81.5625 93.6933 81.5625C95.9845 81.5625 97.841 83.4052 97.841 85.6793V96.3832H161.852C164.144 96.3832 166 98.2259 166 100.5C166 102.774 164.144 104.617 161.852 104.617ZM90.0988 54.1168C90.0988 51.8427 88.2423 50 85.9511 50C83.6606 50 81.8035 51.8427 81.8035 54.1168V75.7989C81.8035 78.0725 83.6606 79.9158 85.9511 79.9158C88.2423 79.9158 90.0988 78.0725 90.0988 75.7989V54.1168ZM114.708 55.7636H105.307V54.1168C105.307 51.8427 103.45 50 101.159 50C98.8685 50 97.0114 51.8427 97.0114 54.1168V67.8397C97.0114 70.1133 98.8685 71.9565 101.159 71.9565C103.45 71.9565 105.307 70.1133 105.307 67.8397V63.9973H114.708V65.9185C114.708 68.1921 116.565 70.0353 118.856 70.0353C121.147 70.0353 123.003 68.1921 123.003 65.9185V54.1168C123.003 51.8427 121.147 50 118.856 50C116.565 50 114.708 51.8427 114.708 54.1168V55.7636ZM147.89 88.1495C150.18 88.1495 152.037 86.3062 152.037 84.0326C152.037 81.7585 150.18 79.9158 147.89 79.9158H117.196C114.906 79.9158 113.049 81.7585 113.049 84.0326C113.049 86.3062 114.906 88.1495 117.196 88.1495H147.89ZM57.4709 142.766V146.883C57.4709 149.157 55.6144 151 53.3233 151C51.0327 151 49.1757 149.157 49.1757 146.883V122.182C49.1757 119.91 51.0327 118.065 53.3233 118.065C55.6144 118.065 57.4709 119.91 57.4709 122.182V134.533H71.2963C73.5874 134.533 75.4439 136.377 75.4439 138.649C75.4439 140.923 73.5874 142.766 71.2963 142.766H57.4709ZM99.7765 151H87.3337C85.0431 151 83.1861 149.157 83.1861 146.883V125.75C83.1861 123.476 85.0431 121.633 87.3337 121.633C89.6248 121.633 91.4813 123.476 91.4813 125.75V142.766H99.7765C102.068 142.766 103.924 144.609 103.924 146.883C103.924 149.157 102.068 151 99.7765 151ZM122.727 126.024C122.727 123.75 120.87 121.908 118.579 121.908C116.288 121.908 114.431 123.75 114.431 126.024V138.101C114.431 140.374 116.288 142.217 118.579 142.217C120.87 142.217 122.727 140.374 122.727 138.101V126.024ZM147.889 125.476H130.469C128.178 125.476 126.321 127.318 126.321 129.592V146.883C126.321 149.157 128.178 151 130.469 151H147.889C150.18 151 152.036 149.157 152.036 146.883V129.592C152.036 127.318 150.18 125.476 147.889 125.476ZM134.616 133.709H143.741V142.766H134.616V133.709ZM68.5312 50H51.1112C48.8206 50 46.9636 51.8427 46.9636 54.1168V71.4076C46.9636 73.6812 48.8206 75.5245 51.1112 75.5245H68.5312C70.8223 75.5245 72.6788 73.6812 72.6788 71.4076V54.1168C72.6788 51.8427 70.8223 50 68.5312 50ZM55.2588 58.2337H64.3836V67.2908H55.2588V58.2337ZM147.889 50C150.18 50 152.036 51.8427 152.036 54.1168V71.4076C152.036 73.6812 150.18 75.5245 147.889 75.5245H130.469C128.178 75.5245 126.321 73.6812 126.321 71.4076V54.1168C126.321 51.8427 128.178 50 130.469 50H147.889ZM134.616 58.2337V67.2908H143.741V58.2337H134.616Z" fill="#FFB800"/>
</svg>
