<svg width="200" height="200" viewBox="0 0 200 200" fill="none" xmlns="http://www.w3.org/2000/svg">
<path fill-rule="evenodd" clip-rule="evenodd" d="M32 1H83.2695V15.1135H40.1135C25.7541 15.1135 14.1135 26.7541 14.1135 41.1135V82.8582H0V33C0 15.3269 14.3269 1 32 1ZM0 116.731V168C0 185.673 14.3269 200 32 200H83.2695V185.887H40.1135C25.7541 185.887 14.1135 174.246 14.1135 159.887V116.731H0ZM184.887 116.731V159.887C184.887 174.246 173.246 185.887 158.887 185.887H117.142V200H167C184.673 200 199 185.673 199 168V116.731H184.887ZM199 82.8582V33C199 15.3269 184.673 1 167 1H117.142V15.1135H158.887C173.246 15.1135 184.887 26.7541 184.887 41.1135V82.8582H199Z" fill="#FFB800"/>
<path d="M130.128 118.008C130.128 125.496 127.968 131.496 123.648 136.008C119.328 140.52 114.096 143.496 107.952 144.936V154.152C107.952 157.512 107.616 159.864 106.944 161.208C106.368 162.552 105.456 163.464 104.208 163.944C103.056 164.424 101.472 164.664 99.4561 164.664C97.4401 164.664 95.8081 164.424 94.5601 163.944C93.4081 163.464 92.5921 162.6 92.1121 161.352C91.4401 159.72 91.1041 157.272 91.1041 154.008V145.08C87.1681 144.216 83.6161 142.776 80.4481 140.76C77.2801 138.744 75.0721 136.968 73.8241 135.432L71.9521 132.984C69.9361 130.392 68.9281 128.136 68.9281 126.216C68.9281 124.296 70.5601 121.752 73.8241 118.584C75.7441 116.76 77.7601 115.848 79.8721 115.848C82.0801 115.848 85.1041 117.768 88.9441 121.608C91.9201 125.256 95.2801 127.08 99.0241 127.08C106.128 127.08 109.68 124.152 109.68 118.296C109.68 116.184 108.336 114.552 105.648 113.4C102.96 112.248 99.6961 111.24 95.8561 110.376C92.0161 109.416 88.1761 108.168 84.3361 106.632C80.4961 105.096 77.2321 102.456 74.5441 98.712C71.8561 94.968 70.5121 90.216 70.5121 84.456C70.5121 78.696 72.3361 73.512 75.9841 68.904C79.6321 64.296 84.6721 61.32 91.1041 59.976V51.912C91.1041 48.648 91.3921 46.296 91.9681 44.856C92.9281 42.552 95.4721 41.4 99.6001 41.4C102.192 41.4 104.112 41.976 105.36 43.128C106.704 44.184 107.472 45.336 107.664 46.584C107.856 47.832 107.952 49.656 107.952 52.056V60.12C110.64 60.696 113.088 61.512 115.296 62.568C117.504 63.624 119.04 64.488 119.904 65.16L121.2 66.312L121.776 66.744C124.176 68.952 125.376 70.776 125.376 72.216C125.376 73.656 124.224 76.056 121.92 79.416C119.712 82.776 117.264 84.456 114.576 84.456C112.848 84.456 111.36 84.024 110.112 83.16C108.96 82.296 108.048 81.576 107.376 81C106.704 80.424 106.08 79.944 105.504 79.56C103.872 78.504 101.808 77.976 99.3121 77.976C96.8161 77.976 94.7521 78.6 93.1201 79.848C91.4881 81 90.6721 82.632 90.6721 84.744C90.6721 86.856 91.6321 88.584 93.5521 89.928C95.5681 91.176 98.0161 92.04 100.896 92.52C103.776 92.904 106.944 93.624 110.4 94.68C113.856 95.64 117.024 96.792 119.904 98.136C122.784 99.48 125.184 101.88 127.104 105.336C129.12 108.696 130.128 112.92 130.128 118.008Z" fill="#FFB800"/>
</svg>
